<?xml version="1.0" standalone="no"?>
<!DOCTYPE svg PUBLIC "-//W3C//DTD SVG 20010904//EN"
 "http://www.w3.org/TR/2001/REC-SVG-20010904/DTD/svg10.dtd">
<svg version="1.0" xmlns="http://www.w3.org/2000/svg"
 width="1200.000000pt" height="1200.000000pt" viewBox="0 0 1200.000000 1200.000000"
 preserveAspectRatio="xMidYMid meet">
<metadata>
Created by potrace 1.11, written by Peter Selinger 2001-2013
</metadata>
<g transform="translate(0.000000,1200.000000) scale(0.100000,-0.100000)"
fill="#000000" stroke="none">
<path d="M2435 10863 c-881 -105 -1571 -802 -1831 -1848 -79 -322 -99 -503
-99 -915 1 -358 10 -482 61 -760 152 -836 537 -1636 1122 -2330 136 -161 492
-517 652 -651 268 -226 559 -434 864 -617 194 -116 624 -334 830 -421 177 -75
403 -161 422 -161 7 0 25 11 40 24 23 19 28 32 28 72 l1 49 -85 43 c-647 331
-1102 624 -1551 998 -170 141 -558 523 -691 679 -245 288 -476 625 -650 950
-275 512 -448 1066 -514 1643 -21 177 -23 595 -5 752 62 546 207 962 459 1320
81 116 289 326 392 396 427 292 919 336 1501 135 435 -150 891 -428 1481 -903
162 -130 185 -139 229 -92 32 35 199 172 329 269 659 497 1339 675 1978 520
558 -136 1050 -550 1286 -1082 251 -567 209 -1199 -126 -1862 -37 -74 -68
-147 -68 -161 0 -45 71 -97 112 -81 35 13 206 194 290 308 216 289 348 594
413 948 22 121 31 432 16 566 -66 572 -361 1106 -816 1472 -424 342 -971 526
-1490 503 -773 -34 -1447 -427 -1970 -1150 l-20 -28 -70 88 c-588 745 -1332
1226 -2043 1319 -102 13 -392 19 -477 8z"/>
<path d="M9730 6809 c-435 -35 -889 -196 -1274 -449 -191 -126 -303 -217 -464
-375 -288 -281 -493 -566 -683 -945 -116 -233 -259 -613 -259 -688 0 -36 27
-61 71 -68 46 -8 64 15 118 141 392 910 1020 1569 1781 1868 294 115 558 167
855 167 191 0 302 -12 451 -50 242 -61 399 -145 550 -295 88 -87 107 -112 147
-195 70 -142 82 -198 82 -375 -1 -129 -5 -165 -28 -257 -67 -269 -205 -534
-496 -952 -23 -32 -41 -67 -41 -78 0 -10 49 -70 108 -133 123 -129 196 -221
275 -347 303 -483 250 -1027 -134 -1393 -137 -130 -295 -218 -477 -267 -113
-29 -328 -36 -463 -13 -108 17 -277 68 -374 110 -71 32 -105 32 -135 0 -38
-41 -32 -81 21 -127 169 -148 400 -259 628 -302 109 -21 332 -21 442 -1 538
100 964 534 1054 1074 26 151 17 368 -20 511 -64 245 -186 458 -371 644 -83
83 -228 200 -295 238 l-39 22 125 125 c141 142 206 221 306 370 266 394 345
825 218 1187 -143 411 -535 713 -1063 819 -203 41 -397 51 -616 34z"/>
<path d="M5964 5021 c-55 -33 -315 -301 -420 -432 -355 -442 -562 -916 -625
-1434 -18 -144 -15 -436 5 -576 103 -720 499 -1265 1036 -1426 103 -31 312
-43 412 -24 298 56 556 240 753 536 82 122 177 313 225 450 17 49 33 91 35 93
2 2 30 -12 62 -31 208 -126 471 -194 713 -184 414 18 768 249 950 620 214 436
133 921 -208 1249 -96 92 -179 150 -291 205 -88 43 -117 45 -148 9 -42 -50
-33 -68 90 -190 172 -169 266 -325 314 -524 22 -90 22 -284 -1 -376 -80 -333
-318 -578 -647 -668 -72 -19 -109 -22 -259 -23 -200 0 -292 16 -508 87 -103
34 -127 39 -145 29 -12 -6 -44 -51 -71 -99 -278 -493 -568 -778 -859 -847 -80
-19 -224 -19 -304 0 -379 89 -728 545 -831 1085 -119 619 31 1263 435 1871 89
134 222 305 334 430 81 90 88 121 38 163 -37 31 -45 32 -85 7z"/>
</g>
</svg>
