<?xml version="1.0" standalone="no"?>
<!DOCTYPE svg PUBLIC "-//W3C//DTD SVG 20010904//EN"
 "http://www.w3.org/TR/2001/REC-SVG-20010904/DTD/svg10.dtd">
<svg version="1.0" xmlns="http://www.w3.org/2000/svg"
 width="1200.000000pt" height="1200.000000pt" viewBox="0 0 1200.000000 1200.000000"
 preserveAspectRatio="xMidYMid meet">
<metadata>
Created by potrace 1.11, written by Peter Selinger 2001-2013
</metadata>
<g transform="translate(0.000000,1200.000000) scale(0.100000,-0.100000)"
fill="#000000" stroke="none">
<path d="M2020 9784 c-30 -7 -68 -16 -85 -18 -50 -9 -68 -14 -112 -30 -57 -20
-124 -60 -149 -88 -41 -46 -273 -442 -485 -828 -70 -127 -129 -250 -186 -385
-14 -33 -29 -69 -34 -80 -11 -25 -75 -314 -84 -375 -3 -25 -8 -52 -10 -60 -19
-72 -26 -462 -12 -612 13 -129 54 -377 80 -478 32 -123 161 -478 219 -600 25
-52 77 -153 116 -224 40 -70 72 -130 72 -133 0 -3 27 -39 60 -80 33 -41 78
-101 100 -133 42 -61 215 -293 259 -346 14 -17 78 -91 142 -165 63 -74 170
-206 238 -294 67 -88 164 -203 215 -255 51 -52 116 -124 146 -160 108 -133
515 -549 670 -686 30 -27 75 -69 100 -94 118 -117 339 -307 490 -420 60 -45
101 -79 150 -122 72 -64 77 -68 310 -222 581 -386 830 -524 1210 -666 120 -44
135 -46 181 -16 l39 26 263 1 c171 1 289 6 338 14 41 8 121 21 179 30 151 24
549 124 575 144 5 5 39 19 75 31 36 13 70 27 75 30 6 4 27 13 47 19 21 7 69
28 108 47 38 18 98 45 133 60 34 14 91 42 127 62 96 53 379 224 426 258 81 58
201 149 314 238 63 50 122 96 130 103 141 111 297 250 430 383 196 197 194
194 435 480 246 292 234 276 435 555 228 315 447 646 550 830 18 33 61 107 95
165 78 133 152 275 353 675 192 384 224 452 287 615 86 225 141 420 119 420
-5 0 -9 26 -10 58 0 74 -15 315 -19 322 -2 3 -6 38 -10 78 -3 41 -8 82 -10 91
-2 10 -6 42 -10 72 -4 30 -13 81 -21 114 -8 33 -17 71 -20 85 -3 14 -21 79
-40 146 -18 66 -34 128 -34 138 0 10 -6 32 -14 49 -8 18 -25 61 -39 97 -45
116 -140 322 -239 517 -69 135 -230 386 -360 559 l-38 50 -167 -1 c-93 -1
-186 -7 -208 -13 -22 -6 -71 -12 -110 -13 -38 -1 -80 -6 -93 -10 -13 -5 -39
-11 -58 -13 -19 -3 -49 -9 -67 -15 -17 -6 -48 -12 -67 -14 -67 -8 -413 -121
-620 -202 -47 -19 -149 -63 -228 -99 -78 -36 -148 -66 -154 -66 -6 0 -43 -20
-82 -44 -39 -24 -102 -59 -141 -78 -38 -19 -124 -70 -190 -114 -66 -45 -142
-94 -170 -109 -104 -60 -335 -215 -411 -277 -43 -35 -106 -84 -139 -108 -128
-94 -364 -286 -440 -359 -44 -42 -112 -103 -150 -136 -38 -33 -75 -64 -81 -70
-83 -72 -314 -312 -413 -429 -69 -81 -159 -182 -198 -223 -40 -41 -81 -85 -90
-99 -10 -13 -22 -20 -28 -16 -5 4 -53 56 -105 117 -52 60 -104 119 -115 130
-11 12 -29 33 -40 47 -11 14 -60 68 -110 120 -49 51 -111 118 -137 148 -74 86
-81 93 -123 129 -38 32 -232 215 -479 453 -61 58 -140 130 -176 158 -36 29
-141 114 -234 189 -204 165 -348 273 -399 301 -21 12 -104 64 -185 117 -81 53
-181 112 -222 131 -41 19 -100 47 -130 64 -417 222 -857 378 -1137 403 -37 4
-79 9 -93 11 -62 12 -228 11 -280 -2z m8310 -1357 c0 -12 -55 -177 -83 -252
-58 -150 -171 -403 -267 -597 -155 -312 -497 -813 -736 -1077 -23 -25 -65 -77
-94 -116 -29 -38 -59 -74 -67 -78 -8 -5 -27 -26 -42 -48 -66 -91 -493 -533
-589 -609 -31 -25 -95 -81 -142 -126 -47 -44 -103 -95 -125 -113 -22 -19 -69
-61 -105 -95 -36 -34 -96 -88 -135 -120 -38 -32 -92 -80 -120 -105 -50 -47
-137 -120 -210 -176 -21 -16 -61 -48 -89 -70 -28 -22 -90 -71 -137 -107 l-86
-67 -13 72 c-18 105 -63 274 -110 417 -75 224 -253 647 -341 809 -16 30 -29
60 -29 66 0 6 28 38 61 70 34 33 91 94 127 135 36 41 184 194 328 340 144 146
338 342 431 436 143 146 357 332 451 392 37 23 38 24 122 93 71 58 313 223
390 265 19 10 37 22 38 27 2 4 7 7 12 7 5 0 57 32 116 71 59 39 135 84 168
100 34 16 88 43 121 61 58 32 149 73 335 153 47 20 123 48 170 62 47 13 90 29
96 34 20 16 141 58 185 63 24 3 64 12 89 21 103 38 280 77 280 62z m-8510
-304 c19 -3 37 -7 40 -8 3 0 28 -4 55 -9 111 -16 382 -99 548 -167 186 -76
282 -125 410 -211 37 -25 95 -56 128 -69 39 -14 64 -29 67 -41 2 -10 9 -18 15
-18 25 0 278 -179 537 -378 56 -43 159 -132 188 -161 15 -15 56 -51 92 -80 36
-29 99 -85 141 -125 42 -39 103 -93 135 -119 78 -64 508 -491 597 -592 39 -44
92 -102 118 -130 26 -27 73 -81 105 -120 32 -38 66 -79 76 -89 15 -17 15 -22
3 -46 -15 -29 -64 -154 -70 -180 -2 -8 -22 -76 -45 -150 -107 -354 -145 -581
-145 -850 0 -124 12 -297 21 -312 20 -33 -55 16 -251 163 -367 276 -501 382
-626 499 -8 8 -29 26 -45 39 -97 80 -327 297 -568 536 -154 153 -216 219 -216
233 0 5 -15 22 -32 39 -51 47 -139 142 -188 203 -24 30 -81 93 -126 140 -45
47 -126 144 -180 215 -132 174 -172 228 -183 241 -51 63 -177 241 -220 311
-30 48 -75 120 -101 158 -116 173 -254 423 -320 580 -23 55 -60 137 -82 182
-21 45 -41 90 -43 100 -2 10 -20 57 -39 105 -38 92 -43 114 -26 120 16 5 192
-1 230 -9z m4065 -3513 c53 -87 275 -524 275 -541 0 -9 -110 -46 -160 -54 -19
-3 -69 -14 -110 -25 -41 -10 -100 -21 -130 -25 -30 -4 -71 -10 -90 -14 -19 -4
-69 -9 -110 -10 -41 -1 -78 -5 -82 -7 -23 -14 6 73 86 258 93 215 250 528 261
516 1 -2 29 -46 60 -98z"/>
</g>
</svg>
